<svg width="49" height="45" viewBox="0 0 49 45" fill="none" xmlns="http://www.w3.org/2000/svg">
<path d="M21.7241 27.543L0.997536 15.628C-0.49877 14.7413 -0.332514 13.245 1.44089 12.2475L21.17 0.831218C22.8879 -0.166318 25.548 -0.277156 27.0443 0.609544L47.7709 12.58C49.2672 13.4667 49.101 14.963 47.3276 15.9605L27.5985 27.3214C25.8805 28.3189 23.2204 28.4297 21.7241 27.543Z" fill="#7B68EE"/>
<path d="M28.596 12.0258L23.8854 9.6982C22.7771 9.14401 21.5024 9.97529 21.5024 11.1945V15.9051C21.5024 17.1243 22.7771 17.9556 23.8854 17.4014L28.596 15.0738C29.8152 14.4088 29.8152 12.6354 28.596 12.0258Z" fill="white"/>
<path d="M0.775862 27.9865C0.332512 27.9865 0 27.654 0 27.2106V14.4643C0 14.021 0.332512 13.6885 0.775862 13.6885C1.21921 13.6885 1.55172 14.021 1.55172 14.4643V27.2106C1.60714 27.654 1.21921 27.9865 0.775862 27.9865Z" fill="#7B68EE"/>
<g opacity="0.5">
<path opacity="0.5" d="M41.4533 36.9643L27.8203 44.8337C27.0444 45.2771 26.4348 44.8337 26.4348 43.7808V34.3042C26.4348 33.2512 27.0444 32.032 27.8203 31.5887L41.3979 23.7192C42.1737 23.2759 42.7833 23.7192 42.7833 24.7722V34.2488C42.8388 35.3571 42.2292 36.5209 41.4533 36.9643Z" fill="#7B68EE"/>
</g>
<path d="M34.692 31.8103L30.7019 34.0825C30.4802 34.1933 30.314 34.0825 30.314 33.75C30.314 33.4729 30.4802 33.085 30.7019 32.9741L34.692 30.702C34.9137 30.5911 35.08 30.702 35.08 31.0345C35.1354 31.3116 34.9137 31.6441 34.692 31.8103Z" fill="white"/>
<path d="M36.1329 33.9717L30.7573 37.1306C30.5356 37.2414 30.3694 37.1306 30.3694 36.7981C30.3694 36.521 30.5356 36.133 30.7573 36.0222L36.1883 32.9188C36.41 32.8079 36.5763 32.9188 36.5763 33.2513C36.5763 33.5284 36.3546 33.8609 36.1329 33.9717Z" fill="white"/>
<path d="M32.309 39.2364L30.7573 40.1231C30.5356 40.2339 30.3694 40.1231 30.3694 39.7906C30.3694 39.5135 30.5356 39.1255 30.7573 39.0147L32.309 38.128C32.5307 38.0172 32.697 38.128 32.697 38.4605C32.697 38.7376 32.5307 39.1255 32.309 39.2364Z" fill="white"/>
<g opacity="0.5">
<path opacity="0.5" d="M20.9482 44.8337L7.31516 36.9643C6.53929 36.5209 5.92969 35.3017 5.92969 34.2488V24.8276C5.92969 23.7746 6.53929 23.3313 7.31516 23.7746L20.8927 31.6441C21.6686 32.0874 22.2782 33.3066 22.2782 34.3596V43.7808C22.3336 44.8337 21.724 45.2771 20.9482 44.8337Z" fill="#7B68EE"/>
</g>
<path d="M14.1872 31.8657L10.197 29.5935C9.97534 29.4827 9.80908 29.0948 9.80908 28.8177C9.80908 28.5406 9.97534 28.3743 10.197 28.4852L14.1872 30.7573C14.4088 30.8682 14.5751 31.2561 14.5751 31.5332C14.6305 31.8657 14.4088 31.9765 14.1872 31.8657Z" fill="white"/>
<path d="M15.6281 35.7451L10.197 32.6416C9.97534 32.5308 9.80908 32.1429 9.80908 31.8658C9.80908 31.5887 9.97534 31.4224 10.197 31.5333L15.6281 34.6367C15.8497 34.7475 16.016 35.1355 16.016 35.4126C16.0714 35.7451 15.8497 35.8559 15.6281 35.7451Z" fill="white"/>
<path d="M11.8042 36.521L10.2524 35.6343C10.0308 35.5235 9.8645 35.1355 9.8645 34.8584C9.8645 34.5813 10.0308 34.4151 10.2524 34.5259L11.8042 35.4126C12.0258 35.5235 12.1921 35.9114 12.1921 36.1885C12.1921 36.521 12.0258 36.6873 11.8042 36.521Z" fill="white"/>
</svg>
